<svg viewBox="0 0 708 240" fill="none" xmlns="http://www.w3.org/2000/svg">
  <path
    d="M129.236 13.5592L129.001 13.4333L128.765 13.5584L1.5 81.1682V68.2994L128.002 0.566206L255.5 67.8016V81.1651L129.236 13.5592Z"
    fill="#0199E3" stroke="#0199E3"/>
  <path fill-rule="evenodd" clip-rule="evenodd" d="M1 171L46 195V74.5L1 98.5V171ZM15 105V164.172L32 173V95.756L15 105Z"
        fill="#0199E3"/>
  <path
    d="M46 195L45.7647 195.441L46.5 195.833V195H46ZM1 171H0.5V171.3L0.764706 171.441L1 171ZM46 74.5H46.5V73.6667L45.7647 74.0588L46 74.5ZM1 98.5L0.764706 98.0588L0.5 98.2V98.5H1ZM15 164.172H14.5V164.476L14.7696 164.616L15 164.172ZM15 105L14.7611 104.561L14.5 104.703V105H15ZM32 173L31.7696 173.444L32.5 173.823V173H32ZM32 95.756H32.5V94.915L31.7611 95.3167L32 95.756ZM46.2353 194.559L1.23529 170.559L0.764706 171.441L45.7647 195.441L46.2353 194.559ZM45.5 74.5V195H46.5V74.5H45.5ZM1.23529 98.9412L46.2353 74.9412L45.7647 74.0588L0.764706 98.0588L1.23529 98.9412ZM1.5 171V98.5H0.5V171H1.5ZM15.5 164.172V105H14.5V164.172H15.5ZM32.2304 172.556L15.2304 163.729L14.7696 164.616L31.7696 173.444L32.2304 172.556ZM31.5 95.756V173H32.5V95.756H31.5ZM15.2389 105.439L32.2389 96.1953L31.7611 95.3167L14.7611 104.561L15.2389 105.439Z"
    fill="#0199E3"/>
  <path fill-rule="evenodd" clip-rule="evenodd"
        d="M256.5 98.5L211.5 74.5V195L256.5 171V98.5ZM242.5 164.5L242.5 105.328L225.5 96.5V173.744L242.5 164.5Z"
        fill="#0199E3"/>
  <path
    d="M211.5 74.5L211.735 74.0588L211 73.6667V74.5H211.5ZM256.5 98.5H257V98.2L256.735 98.0588L256.5 98.5ZM211.5 195H211V195.833L211.735 195.441L211.5 195ZM256.5 171L256.735 171.441L257 171.3V171H256.5ZM242.5 105.328H243V105.024L242.73 104.884L242.5 105.328ZM242.5 164.5L242.739 164.939L243 164.797V164.5H242.5ZM225.5 96.5L225.73 96.0563L225 95.677V96.5H225.5ZM225.5 173.744H225V174.585L225.739 174.183L225.5 173.744ZM211.265 74.9412L256.265 98.9412L256.735 98.0588L211.735 74.0588L211.265 74.9412ZM212 195V74.5H211V195H212ZM256.265 170.559L211.265 194.559L211.735 195.441L256.735 171.441L256.265 170.559ZM256 98.5V171H257V98.5H256ZM242 105.328V164.5H243V105.328H242ZM225.27 96.9437L242.27 105.771L242.73 104.884L225.73 96.0563L225.27 96.9437ZM226 173.744V96.5H225V173.744H226ZM242.261 164.061L225.261 173.305L225.739 174.183L242.739 164.939L242.261 164.061Z"
    fill="#0199E3"/>
  <path d="M129 174V159L76 130.5V145.823L129 174Z" fill="#0199E3"/>
  <path fill-rule="evenodd" clip-rule="evenodd"
        d="M62 65V204L128 239L195 204V65L129 30L62 65ZM128 225L76 197V145.823V130.5V72L129 44.5L181 71.7884V124V138V197L128 225Z"
        fill="#0199E3"/>
  <path d="M128.5 96V110.5L181 138V124L128.5 96Z" fill="#0199E3"/>
  <path
    d="M76 130.5V72L129 44.5L181 71.7884V124M76 130.5L129 159V174L76 145.823M76 130.5V145.823M76 145.823V197L128 225L181 197V138M181 124L128.5 96V110.5L181 138M181 124V138M62 65V204L128 239L195 204V65L129 30L62 65Z"
    stroke="#0199E3"/>
  <path d="M128 95.5V110.231L224.5 162V147L128 95.5Z" fill="#0199E3" stroke="#0199E3"/>
  <path d="M32.5 107.5V122.231L129 174V159L32.5 107.5Z" fill="#0199E3" stroke="#0199E3"/>
  <path
    d="M291.04 183H298.52C307.36 183 312.16 177.52 312.16 168.24C312.16 158.88 307.36 153.68 298.36 153.68H291.04V183ZM294.72 179.96V156.68H298.04C304.96 156.68 308.36 160.8 308.36 168.24C308.36 175.64 304.96 179.96 298.04 179.96H294.72ZM318.219 183H321.899V169.04C323.339 165.36 325.539 164 327.339 164C328.259 164 328.739 164.12 329.459 164.36L330.139 161.2C329.459 160.84 328.779 160.72 327.819 160.72C325.419 160.72 323.179 162.48 321.659 165.24H321.579L321.219 161.28H318.219V183ZM337.633 183.52C340.313 183.52 342.753 182.12 344.833 180.4H344.953L345.273 183H348.273V169.64C348.273 164.24 346.073 160.72 340.753 160.72C337.233 160.72 334.193 162.28 332.233 163.56L333.633 166.08C335.353 164.92 337.633 163.76 340.153 163.76C343.713 163.76 344.633 166.44 344.633 169.24C335.393 170.28 331.313 172.64 331.313 177.36C331.313 181.28 333.993 183.52 337.633 183.52ZM338.673 180.56C336.513 180.56 334.833 179.6 334.833 177.12C334.833 174.32 337.313 172.52 344.633 171.68V177.72C342.513 179.6 340.753 180.56 338.673 180.56ZM362.492 193C369.212 193 373.492 189.52 373.492 185.48C373.492 181.88 370.932 180.32 365.932 180.32H361.652C358.732 180.32 357.852 179.32 357.852 177.96C357.852 176.76 358.452 176.04 359.252 175.36C360.212 175.84 361.412 176.12 362.452 176.12C366.932 176.12 370.412 173.2 370.412 168.56C370.412 166.68 369.692 165.08 368.652 164.08H373.092V161.28H365.532C364.772 160.96 363.692 160.72 362.452 160.72C358.092 160.72 354.332 163.72 354.332 168.48C354.332 171.08 355.732 173.2 357.172 174.32V174.48C356.012 175.28 354.772 176.72 354.772 178.52C354.772 180.24 355.612 181.4 356.732 182.08V182.28C354.692 183.52 353.532 185.32 353.532 187.2C353.532 190.92 357.212 193 362.492 193ZM362.452 173.64C359.972 173.64 357.852 171.64 357.852 168.48C357.852 165.28 359.932 163.4 362.452 163.4C365.052 163.4 367.092 165.28 367.092 168.48C367.092 171.64 364.972 173.64 362.452 173.64ZM363.012 190.48C359.052 190.48 356.732 189 356.732 186.68C356.732 185.44 357.372 184.12 358.932 183C359.892 183.24 360.932 183.32 361.732 183.32H365.492C368.372 183.32 369.892 184.04 369.892 186.08C369.892 188.32 367.212 190.48 363.012 190.48ZM387.056 183H404.376V179.84H390.736V169.16H401.856V166H390.736V156.8H403.936V153.68H387.056V183ZM415.25 183.52C417.93 183.52 420.37 182.12 422.45 180.4H422.57L422.89 183H425.89V169.64C425.89 164.24 423.69 160.72 418.37 160.72C414.85 160.72 411.81 162.28 409.85 163.56L411.25 166.08C412.97 164.92 415.25 163.76 417.77 163.76C421.33 163.76 422.25 166.44 422.25 169.24C413.01 170.28 408.93 172.64 408.93 177.36C408.93 181.28 411.61 183.52 415.25 183.52ZM416.29 180.56C414.13 180.56 412.45 179.6 412.45 177.12C412.45 174.32 414.93 172.52 422.25 171.68V177.72C420.13 179.6 418.37 180.56 416.29 180.56ZM438.469 183.52C443.589 183.52 446.349 180.6 446.349 177.08C446.349 172.96 442.909 171.68 439.749 170.48C437.309 169.56 435.069 168.76 435.069 166.72C435.069 165 436.349 163.56 439.109 163.56C441.029 163.56 442.549 164.4 444.029 165.48L445.789 163.2C444.149 161.84 441.749 160.72 439.069 160.72C434.309 160.72 431.589 163.44 431.589 166.88C431.589 170.6 434.869 172.04 437.909 173.16C440.309 174.04 442.869 175.08 442.869 177.28C442.869 179.16 441.469 180.68 438.589 180.68C435.989 180.68 434.069 179.64 432.149 178.08L430.389 180.52C432.429 182.24 435.389 183.52 438.469 183.52ZM451.86 192.36C456.18 192.36 458.46 189.08 459.98 184.84L468.14 161.28H464.58L460.66 173.32C460.1 175.28 459.46 177.48 458.9 179.48H458.7C457.94 177.44 457.22 175.24 456.54 173.32L452.14 161.28H448.34L457.06 183.04L456.58 184.68C455.66 187.36 454.14 189.36 451.7 189.36C451.1 189.36 450.46 189.16 450.02 189L449.3 191.92C449.98 192.2 450.86 192.36 451.86 192.36ZM487.985 183.52C491.425 183.52 494.185 182.2 496.425 180.16C498.825 181.84 501.105 183 503.185 183.52L504.145 180.48C502.505 180.04 500.625 179.08 498.665 177.68C500.985 174.64 502.665 171.08 503.785 167.2H500.385C499.465 170.56 498.065 173.44 496.265 175.84C493.505 173.56 490.745 170.64 488.825 167.6C492.105 165.24 495.425 162.76 495.425 158.92C495.425 155.52 493.305 153.16 489.665 153.16C485.625 153.16 482.945 156.16 482.945 160.04C482.945 162.16 483.665 164.52 484.865 166.92C481.825 169 479.065 171.44 479.065 175.4C479.065 180.12 482.705 183.52 487.985 183.52ZM494.025 178.24C492.345 179.68 490.425 180.6 488.425 180.6C485.145 180.6 482.625 178.48 482.625 175.2C482.625 172.92 484.265 171.12 486.345 169.48C488.385 172.64 491.145 175.72 494.025 178.24ZM487.465 165.2C486.585 163.4 486.065 161.6 486.065 160C486.065 157.6 487.465 155.72 489.705 155.72C491.665 155.72 492.465 157.28 492.465 159C492.465 161.6 490.145 163.36 487.465 165.2ZM517.798 183H521.118V166.76C521.118 164.24 520.878 160.68 520.638 158.12H520.798L523.158 164.8L528.718 180.04H531.198L536.718 164.8L539.078 158.12H539.238C539.038 160.68 538.758 164.24 538.758 166.76V183H542.198V153.68H537.758L532.158 169.36C531.478 171.36 530.878 173.44 530.118 175.48H529.958C529.238 173.44 528.598 171.36 527.838 169.36L522.238 153.68H517.798V183ZM554.899 183.52C557.579 183.52 560.019 182.12 562.099 180.4H562.219L562.539 183H565.539V169.64C565.539 164.24 563.339 160.72 558.019 160.72C554.499 160.72 551.459 162.28 549.499 163.56L550.899 166.08C552.619 164.92 554.899 163.76 557.419 163.76C560.979 163.76 561.899 166.44 561.899 169.24C552.659 170.28 548.579 172.64 548.579 177.36C548.579 181.28 551.259 183.52 554.899 183.52ZM555.939 180.56C553.779 180.56 552.099 179.6 552.099 177.12C552.099 174.32 554.579 172.52 561.899 171.68V177.72C559.779 179.6 558.019 180.56 555.939 180.56ZM572.438 183H576.038V177.28L580.118 172.52L586.478 183H590.438L582.238 170.04L589.478 161.28H585.398L576.198 172.72H576.038V151.16H572.438V183ZM602.527 183.52C605.447 183.52 607.767 182.56 609.647 181.32L608.367 178.88C606.727 179.96 605.047 180.6 602.927 180.6C598.807 180.6 595.967 177.64 595.727 173H610.367C610.447 172.44 610.527 171.72 610.527 170.92C610.527 164.72 607.407 160.72 601.847 160.72C596.887 160.72 592.127 165.08 592.127 172.16C592.127 179.32 596.727 183.52 602.527 183.52ZM595.687 170.4C596.127 166.08 598.847 163.64 601.927 163.64C605.327 163.64 607.327 166 607.327 170.4H595.687ZM625.181 183H642.501V179.84H628.861V169.16H639.981V166H628.861V156.8H642.061V153.68H625.181V183ZM653.375 183.52C656.055 183.52 658.495 182.12 660.575 180.4H660.695L661.015 183H664.015V169.64C664.015 164.24 661.815 160.72 656.495 160.72C652.975 160.72 649.935 162.28 647.975 163.56L649.375 166.08C651.095 164.92 653.375 163.76 655.895 163.76C659.455 163.76 660.375 166.44 660.375 169.24C651.135 170.28 647.055 172.64 647.055 177.36C647.055 181.28 649.735 183.52 653.375 183.52ZM654.415 180.56C652.255 180.56 650.575 179.6 650.575 177.12C650.575 174.32 653.055 172.52 660.375 171.68V177.72C658.255 179.6 656.495 180.56 654.415 180.56ZM676.594 183.52C681.714 183.52 684.474 180.6 684.474 177.08C684.474 172.96 681.034 171.68 677.874 170.48C675.434 169.56 673.194 168.76 673.194 166.72C673.194 165 674.474 163.56 677.234 163.56C679.154 163.56 680.674 164.4 682.154 165.48L683.914 163.2C682.274 161.84 679.874 160.72 677.194 160.72C672.434 160.72 669.714 163.44 669.714 166.88C669.714 170.6 672.994 172.04 676.034 173.16C678.434 174.04 680.994 175.08 680.994 177.28C680.994 179.16 679.594 180.68 676.714 180.68C674.114 180.68 672.194 179.64 670.274 178.08L668.514 180.52C670.554 182.24 673.514 183.52 676.594 183.52ZM689.985 192.36C694.305 192.36 696.585 189.08 698.105 184.84L706.265 161.28H702.705L698.785 173.32C698.225 175.28 697.585 177.48 697.025 179.48H696.825C696.065 177.44 695.345 175.24 694.665 173.32L690.265 161.28H686.465L695.185 183.04L694.705 184.68C693.785 187.36 692.265 189.36 689.825 189.36C689.225 189.36 688.585 189.16 688.145 189L687.425 191.92C688.105 192.2 688.985 192.36 689.985 192.36Z"
    fill="black"/>
  <path
    d="M337.526 93.172C342.826 93.172 348.232 92.6773 353.744 91.688C355.157 91.476 356.288 91.37 357.136 91.37C357.984 91.37 358.938 91.8647 359.998 92.854C361.129 93.8433 362.118 95.08 362.966 96.564C363.885 97.9773 364.344 99.1433 364.344 100.062C364.344 100.981 363.991 101.652 363.284 102.076C362.577 102.5 361.623 102.606 360.422 102.394C351.235 100.91 343.568 100.062 337.42 99.85C336.36 114.619 335.371 125.679 334.452 133.028C333.533 140.448 332.791 145.077 332.226 146.914C331.661 148.751 331.06 149.67 330.424 149.67C329.788 149.67 329.223 148.61 328.728 146.49C328.304 144.37 327.88 139.706 327.456 132.498C327.103 125.29 326.926 118.965 326.926 113.524C326.926 108.083 326.961 103.949 327.032 101.122C318.976 103.454 309.931 106.952 299.896 111.616C297.917 112.535 296.292 112.994 295.02 112.994C293.819 112.994 292.865 112.005 292.158 110.026C291.451 107.977 291.098 106.351 291.098 105.15C291.098 103.242 292.087 102.041 294.066 101.546C305.373 98.8607 315.761 93.278 325.23 84.798C322.686 85.434 320.248 85.752 317.916 85.752C314.312 85.752 312.086 85.1513 311.238 83.95C310.39 82.678 309.966 81.0173 309.966 78.968C309.966 77.5547 310.319 76.2473 311.026 75.046C311.733 73.774 312.086 72.3253 312.086 70.7C312.086 69.004 310.991 66.99 308.8 64.658C308.235 64.0927 307.952 63.704 307.952 63.492C307.952 63.2093 308.129 63.068 308.482 63.068C309.047 63.068 310.885 63.7393 313.994 65.082C317.103 66.354 319.895 68.898 322.368 72.714C322.933 73.562 323.569 73.986 324.276 73.986C324.983 73.986 326.29 73.5973 328.198 72.82C328.269 69.3573 328.304 66.248 328.304 63.492C328.304 55.9307 328.021 51.5847 327.456 50.454C327.244 50.03 327.138 49.6767 327.138 49.394C327.138 48.4047 327.88 47.91 329.364 47.91C331.767 47.91 333.816 49.1113 335.512 51.514C337.279 53.9167 337.985 56.3547 337.632 58.828C337.42 60.312 337.314 62.22 337.314 64.552C337.314 66.884 337.385 69.0393 337.526 71.018C339.575 70.806 341.695 70.7 343.886 70.7C344.875 70.7 345.547 71.018 345.9 71.654C346.324 72.2193 346.536 73.138 346.536 74.41C346.536 75.6113 346.395 76.424 346.112 76.848C345.9 77.272 344.769 78.12 342.72 79.392C340.741 80.5933 339.045 81.724 337.632 82.784L337.526 93.172ZM327.138 89.886C323.393 91.9353 317.28 94.762 308.8 98.366C317.28 96.3873 323.322 95.08 326.926 94.444C327.067 92.8893 327.138 91.37 327.138 89.886ZM302.334 100.486C302.193 100.415 301.981 100.38 301.698 100.38C300.497 100.38 299.225 100.663 297.882 101.228C296.539 101.793 295.868 102.288 295.868 102.712C295.868 102.853 295.974 102.924 296.186 102.924C297.105 102.924 299.154 102.111 302.334 100.486ZM449.356 87.024C453.031 89.0733 456.599 91.688 460.062 94.868C465.009 99.108 469.355 102.041 473.1 103.666C478.541 105.927 482.004 107.588 483.488 108.648C484.972 109.708 485.714 111.051 485.714 112.676C485.714 113.948 484.477 114.584 482.004 114.584C477.835 114.584 474.513 114.054 472.04 112.994C469.567 111.863 467.871 110.697 466.952 109.496C464.691 106.74 462.111 103.807 459.214 100.698C456.387 97.5887 454.409 95.6453 453.278 94.868C452.218 94.0907 451.017 93.49 449.674 93.066C448.331 92.5713 446.635 92.1827 444.586 91.9C443.314 93.172 440.805 96.7407 437.06 102.606C444.127 100.203 449.886 99.002 454.338 99.002C455.681 99.002 456.529 99.2847 456.882 99.85C457.235 100.345 457.412 101.299 457.412 102.712C457.412 105.044 456.529 106.316 454.762 106.528C453.631 106.669 452.218 107.058 450.522 107.694C448.897 108.33 447.731 108.895 447.024 109.39C446.317 109.885 445.328 110.132 444.056 110.132C442.784 110.132 440.841 110.026 438.226 109.814C435.47 111.015 434.092 112.217 434.092 113.418C434.092 114.619 435.435 116.28 438.12 118.4C448.296 114.089 453.737 111.51 454.444 110.662C455.151 109.885 455.928 109.496 456.776 109.496C457.624 109.496 459.179 110.309 461.44 111.934C463.701 113.489 464.832 115.22 464.832 117.128C464.832 117.905 464.514 119.107 463.878 120.732C463.242 122.287 462.783 123.629 462.5 124.76C462.217 125.82 462.076 127.092 462.076 128.576C462.076 132.533 460.804 134.512 458.26 134.512C457.695 134.512 456.847 134.441 455.716 134.3C454.656 134.159 453.596 134.088 452.536 134.088C449.073 134.088 445.54 135.113 441.936 137.162C441.865 138.222 441.618 138.752 441.194 138.752C440.77 138.752 439.957 138.328 438.756 137.48C437.555 136.632 436.495 135.395 435.576 133.77C434.728 132.215 433.845 129.247 432.926 124.866C432.007 120.414 431.548 117.305 431.548 115.538C431.548 113.701 432.113 112.287 433.244 111.298C434.375 110.309 436.141 109.319 438.544 108.33C437.908 106.987 436.883 105.857 435.47 104.938C431.937 109.743 429.11 113.029 426.99 114.796C424.941 116.563 422.255 117.729 418.934 118.294C419.075 121.474 419.146 124.513 419.146 127.41C419.146 130.237 418.899 132.993 418.404 135.678C417.909 138.363 417.521 139.953 417.238 140.448C417.026 140.943 416.708 141.19 416.284 141.19C415.931 141.19 415.613 140.837 415.33 140.13C413.917 136.667 409.924 131.65 403.352 125.078C402.645 124.442 402.292 124.018 402.292 123.806C402.292 123.594 402.363 123.488 402.504 123.488C402.787 123.488 403.387 123.806 404.306 124.442C405.225 125.007 406.532 125.643 408.228 126.35C409.995 126.986 411.161 127.304 411.726 127.304C412.291 127.304 412.68 126.774 412.892 125.714C413.104 124.654 413.316 119.531 413.528 110.344C411.196 112.252 408.44 114.407 405.26 116.81C402.151 119.213 400.349 120.555 399.854 120.838C399.359 121.121 398.971 121.262 398.688 121.262C397.84 121.262 397.133 120.096 396.568 117.764C396.073 115.361 395.826 113.665 395.826 112.676C395.826 110.768 396.356 109.814 397.416 109.814C397.769 109.814 398.123 109.92 398.476 110.132C398.829 110.344 399.147 110.45 399.43 110.45C401.055 110.45 405.861 107.588 413.846 101.864C413.846 98.9667 413.987 95.7867 414.27 92.324C410.595 94.9387 408.263 96.8467 407.274 98.048C406.567 98.7547 405.472 99.108 403.988 99.108C402.504 99.108 400.985 98.684 399.43 97.836C397.875 96.9173 396.356 95.398 394.872 93.278C393.459 91.158 392.752 89.78 392.752 89.144C392.752 88.296 393.141 87.872 393.918 87.872C394.695 87.872 395.367 88.084 395.932 88.508C396.568 88.932 397.204 89.144 397.84 89.144C401.373 89.144 407.062 85.752 414.906 78.968C415.189 75.788 415.33 73.35 415.33 71.654C415.33 69.958 415.118 68.6507 414.694 67.732C414.27 66.7427 413.528 65.7533 412.468 64.764C411.479 63.7747 410.984 62.9973 410.984 62.432C410.984 61.8667 411.231 61.584 411.726 61.584C412.291 61.584 413.775 61.902 416.178 62.538C418.581 63.174 420.171 63.7747 420.948 64.34C421.796 64.9053 422.397 65.506 422.75 66.142C423.103 66.778 423.28 67.8027 423.28 69.216C423.28 70.6293 423.174 72.6433 422.962 75.258C426.071 75.258 427.626 76.954 427.626 80.346C427.626 82.254 425.506 84.5153 421.266 87.13C420.63 90.946 420.171 94.3027 419.888 97.2C423.704 93.9493 426.036 92.324 426.884 92.324C427.096 92.324 427.202 92.4653 427.202 92.748C427.202 93.3133 426.531 94.7973 425.188 97.2C423.845 99.6027 421.867 102.076 419.252 104.62C418.969 106.457 418.828 108.436 418.828 110.556C418.828 112.676 418.863 114.513 418.934 116.068C424.87 111.333 431.371 102.783 438.438 90.416C437.378 89.6387 436.919 88.4373 437.06 86.812C436.212 87.448 435.223 87.766 434.092 87.766C433.032 87.766 432.078 87.342 431.23 86.494C430.382 85.5753 429.958 84.48 429.958 83.208C429.958 81.936 430.347 81.088 431.124 80.664C431.901 80.1693 433.88 79.9927 437.06 80.134C437.201 77.0247 436.883 75.152 436.106 74.516C435.046 73.668 434.057 72.3607 433.138 70.594C432.29 68.8273 431.866 67.732 431.866 67.308C431.866 66.884 431.972 66.672 432.184 66.672C432.396 66.672 432.643 66.778 432.926 66.99C434.551 68.1913 435.859 68.792 436.848 68.792L439.392 68.58C442.501 68.58 444.162 70.382 444.374 73.986C447.413 73.2793 449.957 72.3253 452.006 71.124C453.137 66.3187 453.702 63.3507 453.702 62.22C453.702 61.0187 453.525 60.1353 453.172 59.57C452.889 59.0047 452.147 58.4393 450.946 57.874C449.815 57.238 449.25 56.7433 449.25 56.39C449.25 55.966 449.674 55.754 450.522 55.754C451.37 55.754 453.313 56.284 456.352 57.344C459.391 58.404 460.91 60.418 460.91 63.386C460.91 64.5873 460.698 66.354 460.274 68.686C462.323 68.686 463.949 69.0393 465.15 69.746C466.422 70.382 467.058 71.2653 467.058 72.396C467.058 73.5267 466.493 74.516 465.362 75.364C464.302 76.1413 461.617 77.0953 457.306 78.226C455.257 82.5367 452.607 85.4693 449.356 87.024ZM450.522 78.332C448.967 77.8373 446.883 77.0953 444.268 76.106C443.773 77.5193 443.526 79.1093 443.526 80.876C443.526 82.6427 443.561 83.844 443.632 84.48C444.692 84.6213 445.752 84.9747 446.812 85.54C448.649 84.268 449.886 81.8653 450.522 78.332ZM441.936 129.848C445.964 128.788 448.967 127.869 450.946 127.092C452.925 126.315 454.197 125.043 454.762 123.276C455.398 121.439 455.716 120.202 455.716 119.566C455.716 118.859 455.539 118.506 455.186 118.506C454.833 118.506 454.479 118.577 454.126 118.718C450.098 120.485 445.505 121.933 440.346 123.064C440.558 126.315 441.088 128.576 441.936 129.848Z"
    fill="black"/>
  <path
    d="M517.565 129H523.22V103.975C523.22 98.97 522.765 93.9 522.505 89.09H522.765L527.9 98.905L545.255 129H551.43V81.355H545.71V106.12C545.71 111.06 546.165 116.455 546.555 121.2H546.23L541.095 111.385L523.675 81.355H517.565V129ZM564.538 129H570.518V81.355H564.538V129ZM600.481 129.845C610.166 129.845 617.576 124.645 617.576 109.37V81.355H611.791V109.5C611.791 120.94 606.786 124.58 600.481 124.58C594.241 124.58 589.366 120.94 589.366 109.5V81.355H583.386V109.37C583.386 124.645 590.731 129.845 600.481 129.845ZM630.426 129H642.581C656.946 129 664.746 120.095 664.746 105.015C664.746 89.805 656.946 81.355 642.321 81.355H630.426V129ZM636.406 124.06V86.23H641.801C653.046 86.23 658.571 92.925 658.571 105.015C658.571 117.04 653.046 124.06 641.801 124.06H636.406ZM668.174 129H674.219L678.834 114.44H696.254L700.804 129H707.174L690.989 81.355H684.294L668.174 129ZM680.329 109.695L682.669 102.35C684.359 96.955 685.919 91.82 687.414 86.23H687.674C689.234 91.755 690.729 96.955 692.484 102.35L694.759 109.695H680.329Z"
    fill="#444444"/>
</svg>
