<svg viewBox="0 0 732 240" fill="none" xmlns="http://www.w3.org/2000/svg">
  <path d="M255.5 67.8016V81.1651L129.236 13.5592L129.001 13.4333L128.765 13.5584L1.5 81.1682V68.2994L128.002 0.566206L255.5 67.8016Z" fill="#0199E3" stroke="#0199E3"/>
  <path fill-rule="evenodd" clip-rule="evenodd" d="M1 171L46 195V74.5L1 98.5V171ZM15 105V164.172L32 173V95.756L15 105Z" fill="#0199E3"/>
  <path d="M46 195L45.7647 195.441L46.5 195.833V195H46ZM1 171H0.5V171.3L0.764706 171.441L1 171ZM46 74.5H46.5V73.6667L45.7647 74.0588L46 74.5ZM1 98.5L0.764706 98.0588L0.5 98.2V98.5H1ZM15 164.172H14.5V164.476L14.7696 164.616L15 164.172ZM15 105L14.7611 104.561L14.5 104.703V105H15ZM32 173L31.7696 173.444L32.5 173.823V173H32ZM32 95.756H32.5V94.915L31.7611 95.3167L32 95.756ZM46.2353 194.559L1.23529 170.559L0.764706 171.441L45.7647 195.441L46.2353 194.559ZM45.5 74.5V195H46.5V74.5H45.5ZM1.23529 98.9412L46.2353 74.9412L45.7647 74.0588L0.764706 98.0588L1.23529 98.9412ZM1.5 171V98.5H0.5V171H1.5ZM15.5 164.172V105H14.5V164.172H15.5ZM32.2304 172.556L15.2304 163.729L14.7696 164.616L31.7696 173.444L32.2304 172.556ZM31.5 95.756V173H32.5V95.756H31.5ZM15.2389 105.439L32.2389 96.1953L31.7611 95.3167L14.7611 104.561L15.2389 105.439Z" fill="#0199E3"/>
  <path fill-rule="evenodd" clip-rule="evenodd" d="M256.5 98.5L211.5 74.5V195L256.5 171V98.5ZM242.5 164.5V105.328L225.5 96.5V173.744L242.5 164.5Z" fill="#0199E3"/>
  <path d="M211.5 74.5L211.735 74.0588L211 73.6667V74.5H211.5ZM256.5 98.5H257V98.2L256.735 98.0588L256.5 98.5ZM211.5 195H211V195.833L211.735 195.441L211.5 195ZM256.5 171L256.735 171.441L257 171.3V171H256.5ZM242.5 105.328H243V105.024L242.73 104.884L242.5 105.328ZM242.5 164.5L242.739 164.939L243 164.797V164.5H242.5ZM225.5 96.5L225.73 96.0563L225 95.677V96.5H225.5ZM225.5 173.744H225V174.585L225.739 174.183L225.5 173.744ZM211.265 74.9412L256.265 98.9412L256.735 98.0588L211.735 74.0588L211.265 74.9412ZM212 195V74.5H211V195H212ZM256.265 170.559L211.265 194.559L211.735 195.441L256.735 171.441L256.265 170.559ZM256 98.5V171H257V98.5H256ZM242 105.328V164.5H243V105.328H242ZM225.27 96.9437L242.27 105.771L242.73 104.884L225.73 96.0563L225.27 96.9437ZM226 173.744V96.5H225V173.744H226ZM242.261 164.061L225.261 173.305L225.739 174.183L242.739 164.939L242.261 164.061Z" fill="#0199E3"/>
  <path d="M129 174V159L76 130.5V145.823L129 174Z" fill="#0199E3"/>
  <path fill-rule="evenodd" clip-rule="evenodd" d="M62 65V204L128 239L195 204V65L129 30L62 65ZM128 225L76 197V145.823V130.5V72L129 44.5L181 71.7884V124V138V197L128 225Z" fill="#0199E3"/>
  <path d="M128.5 96V110.5L181 138V124L128.5 96Z" fill="#0199E3"/>
  <path d="M76 130.5V72L129 44.5L181 71.7884V124M76 130.5L129 159V174L76 145.823M76 130.5V145.823M76 145.823V197L128 225L181 197V138M181 124L128.5 96V110.5L181 138M181 124V138M62 65V204L128 239L195 204V65L129 30L62 65Z" stroke="#0199E3"/>
  <path d="M128 95.5V110.231L224.5 162V147L128 95.5Z" fill="#0199E3" stroke="#0199E3"/>
  <path d="M32.5 107.5V122.231L129 174V159L32.5 107.5Z" fill="#0199E3" stroke="#0199E3"/>
  <path d="M290.64 183H299.08C307.84 183 313.4 178.04 313.4 168.04C313.4 158.08 307.84 153.36 298.76 153.36H290.64V183ZM296.56 178.2V158.12H298.36C303.92 158.12 307.36 160.84 307.36 168.04C307.36 175.24 303.92 178.2 298.36 178.2H296.56ZM318.715 183H324.595V169.64C325.875 166.4 327.955 165.24 329.675 165.24C330.635 165.24 331.275 165.36 332.075 165.6L333.035 160.52C332.395 160.24 331.675 160.04 330.435 160.04C328.115 160.04 325.715 161.64 324.075 164.56H323.955L323.515 160.6H318.715V183ZM340.367 183.56C342.967 183.56 345.207 182.32 347.127 180.6H347.327L347.727 183H352.527V169.92C352.527 163.44 349.607 160.04 343.927 160.04C340.407 160.04 337.207 161.4 334.607 163L336.687 166.92C338.767 165.68 340.767 164.76 342.847 164.76C345.607 164.76 346.567 166.44 346.647 168.64C337.647 169.6 333.767 172.12 333.767 176.88C333.767 180.72 336.367 183.56 340.367 183.56ZM342.327 178.96C340.607 178.96 339.367 178.2 339.367 176.44C339.367 174.4 341.167 172.92 346.647 172.28V176.76C345.247 178.16 344.007 178.96 342.327 178.96ZM366.399 192.72C373.879 192.72 378.599 189.28 378.599 184.76C378.599 180.84 375.639 179.16 370.239 179.16H366.399C363.799 179.16 362.879 178.52 362.879 177.36C362.879 176.4 363.279 175.92 363.839 175.4C364.839 175.76 365.879 175.92 366.719 175.92C371.559 175.92 375.399 173.4 375.399 168.32C375.399 166.92 374.959 165.68 374.399 164.92H378.199V160.6H370.159C369.199 160.28 368.039 160.04 366.719 160.04C361.999 160.04 357.719 162.88 357.719 168.12C357.719 170.76 359.159 172.88 360.719 174V174.16C359.359 175.12 358.239 176.68 358.239 178.32C358.239 180.2 359.079 181.36 360.279 182.12V182.32C358.159 183.48 357.079 185.08 357.079 186.96C357.079 190.92 361.119 192.72 366.399 192.72ZM366.719 172.28C364.799 172.28 363.239 170.8 363.239 168.12C363.239 165.52 364.759 164.08 366.719 164.08C368.719 164.08 370.279 165.52 370.279 168.12C370.279 170.8 368.719 172.28 366.719 172.28ZM367.279 188.96C364.039 188.96 361.959 187.92 361.959 186.08C361.959 185.12 362.399 184.24 363.399 183.44C364.239 183.64 365.159 183.72 366.479 183.72H369.239C371.639 183.72 372.959 184.16 372.959 185.76C372.959 187.48 370.679 188.96 367.279 188.96ZM391.929 183H410.529V178.04H397.849V170.12H408.209V165.16H397.849V158.32H410.089V153.36H391.929V183ZM421.538 183.56C424.138 183.56 426.378 182.32 428.298 180.6H428.498L428.898 183H433.698V169.92C433.698 163.44 430.778 160.04 425.098 160.04C421.578 160.04 418.378 161.4 415.778 163L417.858 166.92C419.938 165.68 421.938 164.76 424.018 164.76C426.778 164.76 427.738 166.44 427.818 168.64C418.818 169.6 414.938 172.12 414.938 176.88C414.938 180.72 417.538 183.56 421.538 183.56ZM423.498 178.96C421.778 178.96 420.538 178.2 420.538 176.44C420.538 174.4 422.338 172.92 427.818 172.28V176.76C426.418 178.16 425.178 178.96 423.498 178.96ZM446.091 183.56C451.891 183.56 455.011 180.44 455.011 176.48C455.011 172.36 451.731 170.84 448.771 169.72C446.371 168.84 444.331 168.24 444.331 166.6C444.331 165.32 445.291 164.44 447.331 164.44C448.971 164.44 450.531 165.24 452.131 166.36L454.771 162.8C452.931 161.36 450.411 160.04 447.171 160.04C442.051 160.04 438.811 162.88 438.811 166.88C438.811 170.64 441.971 172.36 444.811 173.44C447.171 174.36 449.491 175.12 449.491 176.8C449.491 178.2 448.491 179.16 446.251 179.16C444.131 179.16 442.251 178.24 440.251 176.72L437.571 180.44C439.811 182.28 443.091 183.56 446.091 183.56ZM461.456 191.96C466.456 191.96 468.856 188.96 470.816 183.68L478.776 160.6H473.136L470.056 171C469.496 173.08 468.936 175.24 468.456 177.32H468.256C467.616 175.16 467.056 173 466.376 171L462.816 160.6H456.896L465.616 182.56L465.216 183.92C464.576 185.88 463.296 187.32 461.016 187.32C460.496 187.32 459.856 187.16 459.456 187.04L458.376 191.56C459.256 191.8 460.136 191.96 461.456 191.96ZM499.247 183.56C502.887 183.56 505.847 182.36 508.287 180.44C510.807 182 513.327 183.04 515.727 183.56L517.127 178.76C515.607 178.48 513.807 177.72 511.887 176.64C514.207 173.56 515.807 170.16 516.927 166.44H511.527C510.767 169.4 509.487 171.92 507.927 174C505.527 172.2 503.287 170.08 501.527 167.84C504.687 165.68 507.887 163.24 507.887 159.32C507.887 155.44 505.207 152.84 501.007 152.84C496.287 152.84 493.287 156.24 493.287 160.36C493.287 162.32 493.967 164.52 495.127 166.72C492.167 168.64 489.567 171.04 489.567 175.16C489.567 179.72 493.047 183.56 499.247 183.56ZM504.247 177.56C502.887 178.48 501.447 179 499.967 179C497.127 179 495.167 177.32 495.167 174.8C495.167 173.2 496.167 171.88 497.607 170.64C499.487 173.12 501.767 175.48 504.247 177.56ZM499.207 164.28C498.527 162.92 498.127 161.56 498.127 160.32C498.127 158.2 499.407 156.76 501.127 156.76C502.647 156.76 503.327 157.84 503.327 159.32C503.327 161.48 501.527 162.88 499.207 164.28ZM530.679 183H535.999V170.64C535.999 167.8 535.519 163.72 535.239 160.92H535.399L537.759 167.88L542.359 180.32H545.759L550.319 167.88L552.719 160.92H552.919C552.599 163.72 552.159 167.8 552.159 170.64V183H557.559V153.36H550.999L546.039 167.28C545.439 169.08 544.919 171.04 544.279 172.92H544.079C543.479 171.04 542.919 169.08 542.279 167.28L537.239 153.36H530.679V183ZM569.781 183.56C572.381 183.56 574.621 182.32 576.541 180.6H576.741L577.141 183H581.941V169.92C581.941 163.44 579.021 160.04 573.341 160.04C569.821 160.04 566.621 161.4 564.021 163L566.101 166.92C568.181 165.68 570.181 164.76 572.261 164.76C575.021 164.76 575.981 166.44 576.061 168.64C567.061 169.6 563.181 172.12 563.181 176.88C563.181 180.72 565.781 183.56 569.781 183.56ZM571.741 178.96C570.021 178.96 568.781 178.2 568.781 176.44C568.781 174.4 570.581 172.92 576.061 172.28V176.76C574.661 178.16 573.421 178.96 571.741 178.96ZM587.933 183H593.733V177.32L596.853 173.68L602.293 183H608.693L600.293 169.84L607.973 160.6H601.533L593.893 170.2H593.733V151.08H587.933V183ZM620.662 183.56C623.422 183.56 626.262 182.6 628.462 181.08L626.462 177.48C624.822 178.48 623.262 179 621.462 179C618.102 179 615.702 177.12 615.222 173.48H629.022C629.182 172.92 629.302 171.84 629.302 170.76C629.302 164.52 626.102 160.04 619.942 160.04C614.622 160.04 609.502 164.56 609.502 171.8C609.502 179.2 614.382 183.56 620.662 183.56ZM615.102 169.52C615.582 166.28 617.662 164.6 620.022 164.6C622.942 164.6 624.262 166.52 624.262 169.52H615.102ZM643.687 183H662.287V178.04H649.607V170.12H659.967V165.16H649.607V158.32H661.847V153.36H643.687V183ZM673.296 183.56C675.896 183.56 678.136 182.32 680.056 180.6H680.256L680.656 183H685.456V169.92C685.456 163.44 682.536 160.04 676.856 160.04C673.336 160.04 670.136 161.4 667.536 163L669.616 166.92C671.696 165.68 673.696 164.76 675.776 164.76C678.536 164.76 679.496 166.44 679.576 168.64C670.576 169.6 666.696 172.12 666.696 176.88C666.696 180.72 669.296 183.56 673.296 183.56ZM675.256 178.96C673.536 178.96 672.296 178.2 672.296 176.44C672.296 174.4 674.096 172.92 679.576 172.28V176.76C678.176 178.16 676.936 178.96 675.256 178.96ZM697.849 183.56C703.649 183.56 706.769 180.44 706.769 176.48C706.769 172.36 703.489 170.84 700.529 169.72C698.129 168.84 696.089 168.24 696.089 166.6C696.089 165.32 697.049 164.44 699.089 164.44C700.729 164.44 702.289 165.24 703.889 166.36L706.529 162.8C704.689 161.36 702.169 160.04 698.929 160.04C693.809 160.04 690.569 162.88 690.569 166.88C690.569 170.64 693.729 172.36 696.569 173.44C698.929 174.36 701.249 175.12 701.249 176.8C701.249 178.2 700.249 179.16 698.009 179.16C695.889 179.16 694.009 178.24 692.009 176.72L689.329 180.44C691.569 182.28 694.849 183.56 697.849 183.56ZM713.214 191.96C718.214 191.96 720.614 188.96 722.574 183.68L730.534 160.6H724.894L721.814 171C721.254 173.08 720.694 175.24 720.214 177.32H720.014C719.374 175.16 718.814 173 718.134 171L714.574 160.6H708.654L717.374 182.56L716.974 183.92C716.334 185.88 715.054 187.32 712.774 187.32C712.254 187.32 711.614 187.16 711.214 187.04L710.134 191.56C711.014 191.8 711.894 191.96 713.214 191.96Z" fill="black"/>
  <path d="M337.526 93.172C342.826 93.172 348.232 92.6773 353.744 91.688C355.157 91.476 356.288 91.37 357.136 91.37C357.984 91.37 358.938 91.8647 359.998 92.854C361.129 93.8433 362.118 95.08 362.966 96.564C363.885 97.9773 364.344 99.1433 364.344 100.062C364.344 100.981 363.991 101.652 363.284 102.076C362.577 102.5 361.623 102.606 360.422 102.394C351.235 100.91 343.568 100.062 337.42 99.85C336.36 114.619 335.371 125.679 334.452 133.028C333.533 140.448 332.791 145.077 332.226 146.914C331.661 148.751 331.06 149.67 330.424 149.67C329.788 149.67 329.223 148.61 328.728 146.49C328.304 144.37 327.88 139.706 327.456 132.498C327.103 125.29 326.926 118.965 326.926 113.524C326.926 108.083 326.961 103.949 327.032 101.122C318.976 103.454 309.931 106.952 299.896 111.616C297.917 112.535 296.292 112.994 295.02 112.994C293.819 112.994 292.865 112.005 292.158 110.026C291.451 107.977 291.098 106.351 291.098 105.15C291.098 103.242 292.087 102.041 294.066 101.546C305.373 98.8607 315.761 93.278 325.23 84.798C322.686 85.434 320.248 85.752 317.916 85.752C314.312 85.752 312.086 85.1513 311.238 83.95C310.39 82.678 309.966 81.0173 309.966 78.968C309.966 77.5547 310.319 76.2473 311.026 75.046C311.733 73.774 312.086 72.3253 312.086 70.7C312.086 69.004 310.991 66.99 308.8 64.658C308.235 64.0927 307.952 63.704 307.952 63.492C307.952 63.2093 308.129 63.068 308.482 63.068C309.047 63.068 310.885 63.7393 313.994 65.082C317.103 66.354 319.895 68.898 322.368 72.714C322.933 73.562 323.569 73.986 324.276 73.986C324.983 73.986 326.29 73.5973 328.198 72.82C328.269 69.3573 328.304 66.248 328.304 63.492C328.304 55.9307 328.021 51.5847 327.456 50.454C327.244 50.03 327.138 49.6767 327.138 49.394C327.138 48.4047 327.88 47.91 329.364 47.91C331.767 47.91 333.816 49.1113 335.512 51.514C337.279 53.9167 337.985 56.3547 337.632 58.828C337.42 60.312 337.314 62.22 337.314 64.552C337.314 66.884 337.385 69.0393 337.526 71.018C339.575 70.806 341.695 70.7 343.886 70.7C344.875 70.7 345.547 71.018 345.9 71.654C346.324 72.2193 346.536 73.138 346.536 74.41C346.536 75.6113 346.395 76.424 346.112 76.848C345.9 77.272 344.769 78.12 342.72 79.392C340.741 80.5933 339.045 81.724 337.632 82.784L337.526 93.172ZM327.138 89.886C323.393 91.9353 317.28 94.762 308.8 98.366C317.28 96.3873 323.322 95.08 326.926 94.444C327.067 92.8893 327.138 91.37 327.138 89.886ZM302.334 100.486C302.193 100.415 301.981 100.38 301.698 100.38C300.497 100.38 299.225 100.663 297.882 101.228C296.539 101.793 295.868 102.288 295.868 102.712C295.868 102.853 295.974 102.924 296.186 102.924C297.105 102.924 299.154 102.111 302.334 100.486ZM449.356 87.024C453.031 89.0733 456.599 91.688 460.062 94.868C465.009 99.108 469.355 102.041 473.1 103.666C478.541 105.927 482.004 107.588 483.488 108.648C484.972 109.708 485.714 111.051 485.714 112.676C485.714 113.948 484.477 114.584 482.004 114.584C477.835 114.584 474.513 114.054 472.04 112.994C469.567 111.863 467.871 110.697 466.952 109.496C464.691 106.74 462.111 103.807 459.214 100.698C456.387 97.5887 454.409 95.6453 453.278 94.868C452.218 94.0907 451.017 93.49 449.674 93.066C448.331 92.5713 446.635 92.1827 444.586 91.9C443.314 93.172 440.805 96.7407 437.06 102.606C444.127 100.203 449.886 99.002 454.338 99.002C455.681 99.002 456.529 99.2847 456.882 99.85C457.235 100.345 457.412 101.299 457.412 102.712C457.412 105.044 456.529 106.316 454.762 106.528C453.631 106.669 452.218 107.058 450.522 107.694C448.897 108.33 447.731 108.895 447.024 109.39C446.317 109.885 445.328 110.132 444.056 110.132C442.784 110.132 440.841 110.026 438.226 109.814C435.47 111.015 434.092 112.217 434.092 113.418C434.092 114.619 435.435 116.28 438.12 118.4C448.296 114.089 453.737 111.51 454.444 110.662C455.151 109.885 455.928 109.496 456.776 109.496C457.624 109.496 459.179 110.309 461.44 111.934C463.701 113.489 464.832 115.22 464.832 117.128C464.832 117.905 464.514 119.107 463.878 120.732C463.242 122.287 462.783 123.629 462.5 124.76C462.217 125.82 462.076 127.092 462.076 128.576C462.076 132.533 460.804 134.512 458.26 134.512C457.695 134.512 456.847 134.441 455.716 134.3C454.656 134.159 453.596 134.088 452.536 134.088C449.073 134.088 445.54 135.113 441.936 137.162C441.865 138.222 441.618 138.752 441.194 138.752C440.77 138.752 439.957 138.328 438.756 137.48C437.555 136.632 436.495 135.395 435.576 133.77C434.728 132.215 433.845 129.247 432.926 124.866C432.007 120.414 431.548 117.305 431.548 115.538C431.548 113.701 432.113 112.287 433.244 111.298C434.375 110.309 436.141 109.319 438.544 108.33C437.908 106.987 436.883 105.857 435.47 104.938C431.937 109.743 429.11 113.029 426.99 114.796C424.941 116.563 422.255 117.729 418.934 118.294C419.075 121.474 419.146 124.513 419.146 127.41C419.146 130.237 418.899 132.993 418.404 135.678C417.909 138.363 417.521 139.953 417.238 140.448C417.026 140.943 416.708 141.19 416.284 141.19C415.931 141.19 415.613 140.837 415.33 140.13C413.917 136.667 409.924 131.65 403.352 125.078C402.645 124.442 402.292 124.018 402.292 123.806C402.292 123.594 402.363 123.488 402.504 123.488C402.787 123.488 403.387 123.806 404.306 124.442C405.225 125.007 406.532 125.643 408.228 126.35C409.995 126.986 411.161 127.304 411.726 127.304C412.291 127.304 412.68 126.774 412.892 125.714C413.104 124.654 413.316 119.531 413.528 110.344C411.196 112.252 408.44 114.407 405.26 116.81C402.151 119.213 400.349 120.555 399.854 120.838C399.359 121.121 398.971 121.262 398.688 121.262C397.84 121.262 397.133 120.096 396.568 117.764C396.073 115.361 395.826 113.665 395.826 112.676C395.826 110.768 396.356 109.814 397.416 109.814C397.769 109.814 398.123 109.92 398.476 110.132C398.829 110.344 399.147 110.45 399.43 110.45C401.055 110.45 405.861 107.588 413.846 101.864C413.846 98.9667 413.987 95.7867 414.27 92.324C410.595 94.9387 408.263 96.8467 407.274 98.048C406.567 98.7547 405.472 99.108 403.988 99.108C402.504 99.108 400.985 98.684 399.43 97.836C397.875 96.9173 396.356 95.398 394.872 93.278C393.459 91.158 392.752 89.78 392.752 89.144C392.752 88.296 393.141 87.872 393.918 87.872C394.695 87.872 395.367 88.084 395.932 88.508C396.568 88.932 397.204 89.144 397.84 89.144C401.373 89.144 407.062 85.752 414.906 78.968C415.189 75.788 415.33 73.35 415.33 71.654C415.33 69.958 415.118 68.6507 414.694 67.732C414.27 66.7427 413.528 65.7533 412.468 64.764C411.479 63.7747 410.984 62.9973 410.984 62.432C410.984 61.8667 411.231 61.584 411.726 61.584C412.291 61.584 413.775 61.902 416.178 62.538C418.581 63.174 420.171 63.7747 420.948 64.34C421.796 64.9053 422.397 65.506 422.75 66.142C423.103 66.778 423.28 67.8027 423.28 69.216C423.28 70.6293 423.174 72.6433 422.962 75.258C426.071 75.258 427.626 76.954 427.626 80.346C427.626 82.254 425.506 84.5153 421.266 87.13C420.63 90.946 420.171 94.3027 419.888 97.2C423.704 93.9493 426.036 92.324 426.884 92.324C427.096 92.324 427.202 92.4653 427.202 92.748C427.202 93.3133 426.531 94.7973 425.188 97.2C423.845 99.6027 421.867 102.076 419.252 104.62C418.969 106.457 418.828 108.436 418.828 110.556C418.828 112.676 418.863 114.513 418.934 116.068C424.87 111.333 431.371 102.783 438.438 90.416C437.378 89.6387 436.919 88.4373 437.06 86.812C436.212 87.448 435.223 87.766 434.092 87.766C433.032 87.766 432.078 87.342 431.23 86.494C430.382 85.5753 429.958 84.48 429.958 83.208C429.958 81.936 430.347 81.088 431.124 80.664C431.901 80.1693 433.88 79.9927 437.06 80.134C437.201 77.0247 436.883 75.152 436.106 74.516C435.046 73.668 434.057 72.3607 433.138 70.594C432.29 68.8273 431.866 67.732 431.866 67.308C431.866 66.884 431.972 66.672 432.184 66.672C432.396 66.672 432.643 66.778 432.926 66.99C434.551 68.1913 435.859 68.792 436.848 68.792L439.392 68.58C442.501 68.58 444.162 70.382 444.374 73.986C447.413 73.2793 449.957 72.3253 452.006 71.124C453.137 66.3187 453.702 63.3507 453.702 62.22C453.702 61.0187 453.525 60.1353 453.172 59.57C452.889 59.0047 452.147 58.4393 450.946 57.874C449.815 57.238 449.25 56.7433 449.25 56.39C449.25 55.966 449.674 55.754 450.522 55.754C451.37 55.754 453.313 56.284 456.352 57.344C459.391 58.404 460.91 60.418 460.91 63.386C460.91 64.5873 460.698 66.354 460.274 68.686C462.323 68.686 463.949 69.0393 465.15 69.746C466.422 70.382 467.058 71.2653 467.058 72.396C467.058 73.5267 466.493 74.516 465.362 75.364C464.302 76.1413 461.617 77.0953 457.306 78.226C455.257 82.5367 452.607 85.4693 449.356 87.024ZM450.522 78.332C448.967 77.8373 446.883 77.0953 444.268 76.106C443.773 77.5193 443.526 79.1093 443.526 80.876C443.526 82.6427 443.561 83.844 443.632 84.48C444.692 84.6213 445.752 84.9747 446.812 85.54C448.649 84.268 449.886 81.8653 450.522 78.332ZM441.936 129.848C445.964 128.788 448.967 127.869 450.946 127.092C452.925 126.315 454.197 125.043 454.762 123.276C455.398 121.439 455.716 120.202 455.716 119.566C455.716 118.859 455.539 118.506 455.186 118.506C454.833 118.506 454.479 118.577 454.126 118.718C450.098 120.485 445.505 121.933 440.346 123.064C440.558 126.315 441.088 128.576 441.936 129.848Z" fill="black"/>
  <path d="M537.305 129H544.455V106.51C544.455 101.245 543.87 95.72 543.545 90.78H543.805L548.81 100.79L564.67 129H572.405V81.095H565.19V103.455C565.19 108.655 565.84 114.44 566.23 119.315H565.905L560.9 109.24L545.04 81.095H537.305V129ZM585.039 129H592.579V81.095H585.039V129ZM622.648 129.91C633.243 129.91 640.393 124.06 640.393 108.46V81.095H633.113V108.915C633.113 119.77 628.693 123.28 622.648 123.28C616.668 123.28 612.378 119.77 612.378 108.915V81.095H604.838V108.46C604.838 124.06 612.053 129.91 622.648 129.91ZM652.769 129H665.574C679.874 129 688.259 120.485 688.259 104.885C688.259 89.22 679.874 81.095 665.184 81.095H652.769V129ZM660.309 122.825V87.27H664.664C674.934 87.27 680.459 92.925 680.459 104.885C680.459 116.78 674.934 122.825 664.664 122.825H660.309ZM691.215 129H698.95L702.98 115.415H719.62L723.65 129H731.645L715.785 81.095H707.075L691.215 129ZM704.8 109.435L706.685 103C708.245 97.8 709.74 92.535 711.17 87.075H711.43C712.925 92.47 714.355 97.8 715.915 103L717.8 109.435H704.8Z" fill="#444444"/>
</svg>
