<svg viewBox="0 0 257 240" fill="none" xmlns="http://www.w3.org/2000/svg">
  <path d="M129.236 13.5592L129.001 13.4333L128.765 13.5584L1.5 81.1682V68.2994L128.002 0.566206L255.5 67.8016V81.1651L129.236 13.5592Z" fill="#0199E3" stroke="#0199E3"/>
  <path fill-rule="evenodd" clip-rule="evenodd" d="M1 171L46 195V74.5L1 98.5V171ZM15 105V164.172L32 173V95.756L15 105Z" fill="#0199E3"/>
  <path d="M46 195L45.7647 195.441L46.5 195.833V195H46ZM1 171H0.5V171.3L0.764706 171.441L1 171ZM46 74.5H46.5V73.6667L45.7647 74.0588L46 74.5ZM1 98.5L0.764706 98.0588L0.5 98.2V98.5H1ZM15 164.172H14.5V164.476L14.7696 164.616L15 164.172ZM15 105L14.7611 104.561L14.5 104.703V105H15ZM32 173L31.7696 173.444L32.5 173.823V173H32ZM32 95.756H32.5V94.915L31.7611 95.3167L32 95.756ZM46.2353 194.559L1.23529 170.559L0.764706 171.441L45.7647 195.441L46.2353 194.559ZM45.5 74.5V195H46.5V74.5H45.5ZM1.23529 98.9412L46.2353 74.9412L45.7647 74.0588L0.764706 98.0588L1.23529 98.9412ZM1.5 171V98.5H0.5V171H1.5ZM15.5 164.172V105H14.5V164.172H15.5ZM32.2304 172.556L15.2304 163.729L14.7696 164.616L31.7696 173.444L32.2304 172.556ZM31.5 95.756V173H32.5V95.756H31.5ZM15.2389 105.439L32.2389 96.1953L31.7611 95.3167L14.7611 104.561L15.2389 105.439Z" fill="#0199E3"/>
  <path fill-rule="evenodd" clip-rule="evenodd" d="M256.5 98.5L211.5 74.5V195L256.5 171V98.5ZM242.5 164.5V105.328L225.5 96.5V173.744L242.5 164.5Z" fill="#0199E3"/>
  <path d="M211.5 74.5L211.735 74.0588L211 73.6667V74.5H211.5ZM256.5 98.5H257V98.2L256.735 98.0588L256.5 98.5ZM211.5 195H211V195.833L211.735 195.441L211.5 195ZM256.5 171L256.735 171.441L257 171.3V171H256.5ZM242.5 105.328H243V105.024L242.73 104.884L242.5 105.328ZM242.5 164.5L242.739 164.939L243 164.797V164.5H242.5ZM225.5 96.5L225.73 96.0563L225 95.677V96.5H225.5ZM225.5 173.744H225V174.585L225.739 174.183L225.5 173.744ZM211.265 74.9412L256.265 98.9412L256.735 98.0588L211.735 74.0588L211.265 74.9412ZM212 195V74.5H211V195H212ZM256.265 170.559L211.265 194.559L211.735 195.441L256.735 171.441L256.265 170.559ZM256 98.5V171H257V98.5H256ZM242 105.328V164.5H243V105.328H242ZM225.27 96.9437L242.27 105.771L242.73 104.884L225.73 96.0563L225.27 96.9437ZM226 173.744V96.5H225V173.744H226ZM242.261 164.061L225.261 173.305L225.739 174.183L242.739 164.939L242.261 164.061Z" fill="#0199E3"/>
  <path d="M129 174V159L76 130.5V145.823L129 174Z" fill="#0199E3"/>
  <path fill-rule="evenodd" clip-rule="evenodd" d="M62 65V204L128 239L195 204V65L129 30L62 65ZM128 225L76 197V145.823V130.5V72L129 44.5L181 71.7884V124V138V197L128 225Z" fill="#0199E3"/>
  <path d="M128.5 96V110.5L181 138V124L128.5 96Z" fill="#0199E3"/>
  <path d="M76 130.5V72L129 44.5L181 71.7884V124M76 130.5L129 159V174L76 145.823M76 130.5V145.823M76 145.823V197L128 225L181 197V138M181 124L128.5 96V110.5L181 138M181 124V138M62 65V204L128 239L195 204V65L129 30L62 65Z" stroke="#0199E3"/>
  <path d="M128 95.5V110.231L224.5 162V147L128 95.5Z" fill="#0199E3" stroke="#0199E3"/>
  <path d="M32.5 107.5V122.231L129 174V159L32.5 107.5Z" fill="#0199E3" stroke="#0199E3"/>
</svg>
